<mxfile host="app.diagrams.net" modified="2024-04-20T23:44:02.929Z" agent="Mozilla/5.0 (Macintosh; Intel Mac OS X 10.15; rv:124.0) Gecko/20100101 Firefox/124.0" etag="Y1MSW71Sj7Qbp7JBDDTi" version="24.2.7" type="github">
  <diagram name="Page-1" id="jLP-PbIElW-eHgMsclkM">
    <mxGraphModel dx="1434" dy="822" grid="1" gridSize="10" guides="1" tooltips="1" connect="1" arrows="1" fold="1" page="1" pageScale="1" pageWidth="850" pageHeight="1100" math="0" shadow="0">
      <root>
        <mxCell id="0" />
        <mxCell id="1" parent="0" />
        <mxCell id="UuuGrxQbsCg-sBQsSnPp-1" value="" style="rounded=1;whiteSpace=wrap;html=1;" parent="1" vertex="1">
          <mxGeometry x="70" y="70" width="120" height="60" as="geometry" />
        </mxCell>
        <mxCell id="UuuGrxQbsCg-sBQsSnPp-2" value="" style="rounded=1;whiteSpace=wrap;html=1;" parent="1" vertex="1">
          <mxGeometry x="225" y="80" width="315" height="20" as="geometry" />
        </mxCell>
        <mxCell id="UuuGrxQbsCg-sBQsSnPp-3" value="" style="rounded=1;whiteSpace=wrap;html=1;" parent="1" vertex="1">
          <mxGeometry x="570" y="75" width="40" height="30" as="geometry" />
        </mxCell>
        <mxCell id="UuuGrxQbsCg-sBQsSnPp-4" value="" style="rounded=1;whiteSpace=wrap;html=1;" parent="1" vertex="1">
          <mxGeometry x="690" y="75" width="40" height="30" as="geometry" />
        </mxCell>
        <mxCell id="UuuGrxQbsCg-sBQsSnPp-5" value="" style="rounded=1;whiteSpace=wrap;html=1;" parent="1" vertex="1">
          <mxGeometry x="630" y="75" width="40" height="30" as="geometry" />
        </mxCell>
        <mxCell id="UuuGrxQbsCg-sBQsSnPp-6" value="" style="rounded=1;whiteSpace=wrap;html=1;" parent="1" vertex="1">
          <mxGeometry x="740" y="75" width="40" height="30" as="geometry" />
        </mxCell>
        <mxCell id="UuuGrxQbsCg-sBQsSnPp-7" value="" style="rounded=1;whiteSpace=wrap;html=1;" parent="1" vertex="1">
          <mxGeometry x="790" y="75" width="40" height="30" as="geometry" />
        </mxCell>
        <mxCell id="UuuGrxQbsCg-sBQsSnPp-8" value="" style="rounded=0;whiteSpace=wrap;html=1;" parent="1" vertex="1">
          <mxGeometry x="70" y="190" width="100" height="30" as="geometry" />
        </mxCell>
        <mxCell id="UuuGrxQbsCg-sBQsSnPp-9" value="" style="rounded=0;whiteSpace=wrap;html=1;" parent="1" vertex="1">
          <mxGeometry x="480" y="190" width="100" height="30" as="geometry" />
        </mxCell>
        <mxCell id="UuuGrxQbsCg-sBQsSnPp-10" value="" style="rounded=0;whiteSpace=wrap;html=1;" parent="1" vertex="1">
          <mxGeometry x="350" y="190" width="100" height="30" as="geometry" />
        </mxCell>
        <mxCell id="UuuGrxQbsCg-sBQsSnPp-11" value="" style="rounded=0;whiteSpace=wrap;html=1;" parent="1" vertex="1">
          <mxGeometry x="210" y="190" width="100" height="30" as="geometry" />
        </mxCell>
        <mxCell id="6m2Ft0l03Sumeisp5MgH-1" value="" style="rounded=0;whiteSpace=wrap;html=1;" vertex="1" parent="1">
          <mxGeometry x="730" y="190" width="100" height="30" as="geometry" />
        </mxCell>
        <mxCell id="6m2Ft0l03Sumeisp5MgH-2" value="" style="rounded=0;whiteSpace=wrap;html=1;" vertex="1" parent="1">
          <mxGeometry x="610" y="190" width="100" height="30" as="geometry" />
        </mxCell>
        <mxCell id="6m2Ft0l03Sumeisp5MgH-3" value="" style="rounded=0;whiteSpace=wrap;html=1;" vertex="1" parent="1">
          <mxGeometry x="70" y="250" width="750" height="130" as="geometry" />
        </mxCell>
        <mxCell id="6m2Ft0l03Sumeisp5MgH-4" value="" style="rounded=0;whiteSpace=wrap;html=1;" vertex="1" parent="1">
          <mxGeometry x="70" y="400" width="100" height="20" as="geometry" />
        </mxCell>
        <mxCell id="6m2Ft0l03Sumeisp5MgH-6" value="" style="rounded=0;whiteSpace=wrap;html=1;" vertex="1" parent="1">
          <mxGeometry x="630" y="400" width="100" height="20" as="geometry" />
        </mxCell>
        <mxCell id="6m2Ft0l03Sumeisp5MgH-7" value="" style="rounded=0;whiteSpace=wrap;html=1;" vertex="1" parent="1">
          <mxGeometry x="425" y="400" width="100" height="20" as="geometry" />
        </mxCell>
        <mxCell id="6m2Ft0l03Sumeisp5MgH-8" value="" style="rounded=0;whiteSpace=wrap;html=1;" vertex="1" parent="1">
          <mxGeometry x="230" y="400" width="100" height="20" as="geometry" />
        </mxCell>
        <mxCell id="6m2Ft0l03Sumeisp5MgH-9" value="" style="rounded=0;whiteSpace=wrap;html=1;" vertex="1" parent="1">
          <mxGeometry x="70" y="440" width="100" height="20" as="geometry" />
        </mxCell>
        <mxCell id="6m2Ft0l03Sumeisp5MgH-10" value="" style="rounded=0;whiteSpace=wrap;html=1;" vertex="1" parent="1">
          <mxGeometry x="425" y="440" width="100" height="20" as="geometry" />
        </mxCell>
        <mxCell id="6m2Ft0l03Sumeisp5MgH-11" value="" style="rounded=0;whiteSpace=wrap;html=1;" vertex="1" parent="1">
          <mxGeometry x="230" y="440" width="100" height="20" as="geometry" />
        </mxCell>
        <mxCell id="6m2Ft0l03Sumeisp5MgH-14" value="" style="rounded=0;whiteSpace=wrap;html=1;" vertex="1" parent="1">
          <mxGeometry x="630" y="440" width="100" height="20" as="geometry" />
        </mxCell>
        <mxCell id="6m2Ft0l03Sumeisp5MgH-17" value="" style="rounded=0;whiteSpace=wrap;html=1;" vertex="1" parent="1">
          <mxGeometry x="70" y="490" width="360" height="130" as="geometry" />
        </mxCell>
        <mxCell id="6m2Ft0l03Sumeisp5MgH-18" value="" style="rounded=0;whiteSpace=wrap;html=1;" vertex="1" parent="1">
          <mxGeometry x="450" y="490" width="360" height="130" as="geometry" />
        </mxCell>
        <mxCell id="6m2Ft0l03Sumeisp5MgH-19" value="" style="rounded=0;whiteSpace=wrap;html=1;" vertex="1" parent="1">
          <mxGeometry x="70" y="640" width="730" height="130" as="geometry" />
        </mxCell>
        <mxCell id="6m2Ft0l03Sumeisp5MgH-20" value="" style="rounded=0;whiteSpace=wrap;html=1;" vertex="1" parent="1">
          <mxGeometry x="70" y="780" width="100" height="20" as="geometry" />
        </mxCell>
        <mxCell id="6m2Ft0l03Sumeisp5MgH-21" value="" style="rounded=0;whiteSpace=wrap;html=1;" vertex="1" parent="1">
          <mxGeometry x="670" y="780" width="100" height="20" as="geometry" />
        </mxCell>
        <mxCell id="6m2Ft0l03Sumeisp5MgH-22" value="" style="rounded=0;whiteSpace=wrap;html=1;" vertex="1" parent="1">
          <mxGeometry x="450" y="780" width="100" height="20" as="geometry" />
        </mxCell>
        <mxCell id="6m2Ft0l03Sumeisp5MgH-23" value="" style="rounded=0;whiteSpace=wrap;html=1;" vertex="1" parent="1">
          <mxGeometry x="240" y="780" width="100" height="20" as="geometry" />
        </mxCell>
      </root>
    </mxGraphModel>
  </diagram>
</mxfile>
